<svg xmlns="http://www.w3.org/2000/svg" width="19.145" height="19.141" viewBox="0 0 19.145 19.141">
  <path id="instagram-brands" d="M9.5,36.488A4.907,4.907,0,1,0,14.407,41.4,4.9,4.9,0,0,0,9.5,36.488Zm0,8.1a3.19,3.19,0,1,1,3.19-3.19,3.2,3.2,0,0,1-3.19,3.19Zm6.253-8.3a1.145,1.145,0,1,1-1.145-1.145A1.142,1.142,0,0,1,15.752,36.287ZM19,37.449a5.665,5.665,0,0,0-1.546-4.011,5.7,5.7,0,0,0-4.011-1.546c-1.58-.09-6.317-.09-7.9,0a5.694,5.694,0,0,0-4.011,1.542A5.683,5.683,0,0,0-.008,37.445c-.09,1.58-.09,6.317,0,7.9a5.665,5.665,0,0,0,1.546,4.011A5.709,5.709,0,0,0,5.549,50.9c1.58.09,6.317.09,7.9,0a5.665,5.665,0,0,0,4.011-1.546A5.7,5.7,0,0,0,19,45.342c.09-1.58.09-6.313,0-7.893Zm-2.042,9.588a3.23,3.23,0,0,1-1.819,1.819c-1.26.5-4.25.384-5.642.384s-4.386.111-5.642-.384a3.23,3.23,0,0,1-1.819-1.819c-.5-1.26-.384-4.25-.384-5.642s-.111-4.386.384-5.642a3.23,3.23,0,0,1,1.819-1.819c1.26-.5,4.25-.384,5.642-.384s4.386-.111,5.642.384a3.23,3.23,0,0,1,1.819,1.819c.5,1.26.384,4.25.384,5.642S17.461,45.782,16.961,47.037Z" transform="translate(0.075 -31.825)" fill="#acbfe3"/>
</svg>
