<svg xmlns="http://www.w3.org/2000/svg" width="20.646" height="16.768" viewBox="0 0 20.646 16.768">
  <path id="twitter-brands" d="M18.523,52.261c.013.183.013.367.013.55A11.956,11.956,0,0,1,6.5,64.85a11.957,11.957,0,0,1-6.5-1.9A8.755,8.755,0,0,0,1.022,63,8.474,8.474,0,0,0,6.275,61.2a4.239,4.239,0,0,1-3.956-2.934,5.336,5.336,0,0,0,.8.065,4.475,4.475,0,0,0,1.113-.144A4.232,4.232,0,0,1,.838,54.029v-.052a4.261,4.261,0,0,0,1.913.537,4.238,4.238,0,0,1-1.31-5.659,12.027,12.027,0,0,0,8.725,4.428,4.777,4.777,0,0,1-.1-.969,4.235,4.235,0,0,1,7.323-2.9A8.331,8.331,0,0,0,20.069,48.4a4.22,4.22,0,0,1-1.86,2.332,8.482,8.482,0,0,0,2.437-.655,9.1,9.1,0,0,1-2.122,2.188Z" transform="translate(0 -48.082)" fill="#acbfe3"/>
</svg>
